<svg id="Laag_1" data-name="Laag 1" xmlns="http://www.w3.org/2000/svg" viewBox="0 0 220.44 162.14"><defs><style>.cls-1{fill:#fff;}</style></defs><path class="cls-1" d="M248.34,341.75a1.9,1.9,0,0,0,1.89-1.9v-4.79a1.9,1.9,0,0,0-1.89-1.9H222.53v-4.69a1.89,1.89,0,0,0-1.9-1.89H193.31a1.88,1.88,0,0,0-1.89,1.89v4.69H165.61a1.9,1.9,0,0,0-1.9,1.9v4.79a1.9,1.9,0,0,0,1.9,1.9h4V480.13h-4a1.9,1.9,0,0,0-1.9,1.9v4.79a1.9,1.9,0,0,0,1.9,1.9h82.73a1.9,1.9,0,0,0,1.89-1.9V482a1.9,1.9,0,0,0-1.89-1.9h-4V341.75Z" transform="translate(-163.71 -326.58)"/><path class="cls-1" d="M244.3,345.2v10h10v10h-10v5h54.89v81.48H244.3v5h10v10h-10v10h138a1.9,1.9,0,0,0,1.9-1.89V347.09a1.9,1.9,0,0,0-1.9-1.89Zm30,20h-10v-10h10Zm20,0h-10v-10h10Zm-20,101.48h-10v-10h10Zm20,0h-10v-10h10ZM344.18,355.2h10v10h-10Zm-20,0h10v10h-10Zm-20,0h10v10h-10Zm10,111.48h-10v-10h10Zm20,0h-10v-10h10Zm20,0h-10v-10h10Zm20,0h-10v-10h10Zm0-15h-65V370.2h65Zm0-86.48h-10v-10h10Z" transform="translate(-163.71 -326.58)"/></svg>