<svg id="Laag_1" data-name="Laag 1" xmlns="http://www.w3.org/2000/svg" viewBox="0 0 1149.4 346.42"><defs><style>.cls-1{fill:#fff;}</style></defs><path class="cls-1" d="M1050.2,495.68c-2.25-20.17-1.36-39.31-1.84-58.42-.18-7.3,1.28-10.86,9.6-10.12,10.16.9,23.44-3.1,29.82,2,6.8,5.4,2.14,19.17,2.18,29.26.23,52.37-.14,104.74.34,157.1.08,9.12-2.59,12.13-11.28,10.77a30.21,30.21,0,0,0-8.28,0c-9.6,1.21-17.4,0-17.06-12.66-5.17-.1-7.41,3.61-10.37,5.66-25.92,18-59.71,11.77-74.61-15.76-17.35-32.07-17.2-65.07,2.42-96.55,14.13-22.66,48.54-35.58,73.9-14.2C1046.17,493.68,1047.66,494.24,1050.2,495.68Zm-1.71,59.11c0-7.88-.07-15.76,0-23.63,0-3.7-.59-6.67-3.81-9.27-13.54-11-33.2-7.8-40.3,8-7.92,17.64-7.45,36.17.58,53.83,4.59,10.09,15.78,14,27.3,11.19,11-2.68,16.17-9.85,16.2-22.4Q1048.51,563.66,1048.49,554.79Z" transform="translate(-26.77 -426.48)"/><path class="cls-1" d="M367.79,611.42c-13.53,9.8-26,18.39-42.67,17.69-19.34-.8-33.76-10.69-39.09-28.32-5.75-19,.22-37.2,16.14-47.88,16.19-10.87,35-14,53.75-16.27,8.19-1,7.92-4.27,5.72-9.77-3.12-7.8-9.26-11.25-17.46-11.85-11.91-.87-22.58,3-32.69,8.54-5.27,2.89-8.21,3.49-11.77-2.92-12.15-21.87-12.48-22.2,11.24-31.12,16.75-6.3,33.84-9.69,52.07-6.11,22.06,4.33,34.67,17.41,39.35,38.72,4.44,20.24,1.72,40.81,2.37,61.23.2,6.29,0,12.59,0,18.89,0,26.4-1.26,27.46-28.48,23.91C371.27,625.51,371.27,625.51,367.79,611.42Zm-4.2-37.82c-2.19-3.42,3.8-12.37-4-12.24-10.69.19-21.8,2.94-30.43,10.71-4.82,4.34-6.54,9.86-4.88,16,1.81,6.65,7.56,8.66,13.59,9.42C351.67,599.2,363.56,588.44,363.59,573.6Z" transform="translate(-26.77 -426.48)"/><path class="cls-1" d="M661.53,567.45c-11.07,0-22.18.54-33.21-.16-9.77-.61-9.48,3.67-6.65,10.46,6.38,15.28,24.81,23.45,44,19.33,2.7-.58,5.77-.87,7.89-2.38,11.22-8,15.25-1.43,20.76,7.82,5.91,9.92,3.35,13.65-6,18-38.43,17.94-81,7.81-99.38-24.24-25.59-44.53-2.72-102.42,44.59-112.87,32.21-7.12,60,10,68.68,42.32.31,1.14.74,2.26,1,3.41,2.12,12.11,6,26.26-.59,35.73-5.11,7.32-19.17,1.69-29.21,2.51C669.46,567.72,665.49,567.45,661.53,567.45Zm-41.94-26.6c14.87,0,29.76,0,44.65,0,3.47,0,6.48-.34,5.76-5-1.52-9.66-4.49-17.89-15.41-21.3C639.86,510,619.47,520,619.59,540.85Z" transform="translate(-26.77 -426.48)"/><path class="cls-1" d="M890,567.45c-11.48,0-23,.31-34.42-.11-7.43-.27-7.6,2.64-5.53,8.46,5.91,16.65,24.76,25.73,45.07,21.19,3.44-.77,7.1-1.61,10-3.44,7.88-4.95,12-2.83,16.09,5.35,8.24,16.57,8.71,16.33-8.63,23.46-32.76,13.47-68.36,6.72-88.12-16.7-20.23-24-22.06-65.37-4.13-93.31,15.6-24.31,43.56-35.2,72.09-28.09,23.35,5.83,39.22,27.26,41.45,56,2.12,27.22,2.12,27.22-24.91,27.22Zm-17.33-26.59c6.31,0,12.65-.45,18.9.11,7,.63,8.08-2.47,7-8.29-2-10.91-8-17.5-19.41-18.95-12.11-1.54-23.25,4.78-28.46,16.33-3.2,7.1-3.91,12,6.63,10.89C862.33,540.41,867.5,540.86,872.62,540.86Z" transform="translate(-26.77 -426.48)"/><path class="cls-1" d="M78.69,550.43c0-21.68-.25-43.36.14-65,.13-7.11-2-9.83-9.33-9.51-11.44.5-22.93-.05-34.39.2-5.35.12-7.44-1.34-7.77-7.23-1.55-27.38-1.77-27.36,25.33-27.36,36,0,72,.23,108-.18,8.06-.1,10.8,1.77,10.71,10.29-.28,24.41.13,24.41-23.79,24.41C120,476,120,476,120,503.56c0,37.45-.25,74.9.2,112.34.1,8.23-2,11.37-10.41,10.37-10-1.19-23.54,4.3-29.32-2.33-5-5.72-1.62-18.77-1.7-28.58C78.6,580.38,78.69,565.4,78.69,550.43Z" transform="translate(-26.77 -426.48)"/><path class="cls-1" d="M497.35,596.13c9.87-35.94,19.08-68.45,27.57-101.14,1.94-7.47,4.88-10.59,12.75-9.86,7.44.69,15,.32,22.5.11,5.66-.17,6.71,1.87,5,7.1Q544,556.24,523.29,620.27c-1.46,4.5-3.74,6.13-8.48,6-11.45-.31-22.92-.33-34.36,0-5.11.16-7.69-1.32-9.38-6.42q-21-63.3-42.64-126.42c-2-5.83-1.88-8,5.42-8.33,33.18-1.31,33.21-1.55,41.88,30.47C482.69,541.27,489.54,567,497.35,596.13Z" transform="translate(-26.77 -426.48)"/><path class="cls-1" d="M735.21,511.51c0-25.22.18-50.44-.15-75.66-.09-6.63,1.87-8.57,8.63-8.73,33.08-.8,33.07-1,33.07,31.53q0,60.89,0,121.77c0,6.93-1.44,15,9.59,15.38,3.25.1,3.11,3,3.51,5.22,1.06,5.81,1.66,11.74,3.19,17.42,1.87,6.93-1.33,9.06-7.45,10.09-31.76,5.33-49.46-8.76-50.29-41.35C734.7,562,735.22,536.74,735.21,511.51Z" transform="translate(-26.77 -426.48)"/><path class="cls-1" d="M222.67,510.75c8.88-13.45,17.67-23.92,32.09-27.16A50.64,50.64,0,0,1,266.37,482c13,.18,14.23,1.84,11.81,14.38-.53,2.7-1.3,5.38-1.58,8.1-1,10.07-2.46,16.73-16.68,14.77-18-2.48-32.73,13.8-32.81,32.31-.1,22-.25,44.08.11,66.11.11,6.49-1.44,9.27-8.4,8.65-10.53-.93-24,4.15-30.88-1.94-6.47-5.73-1.85-19.27-1.93-29.36-.25-33.44.09-66.9-.24-100.34-.07-7,1.49-9.5,9.08-9.56C219,484.89,219,484.54,222.67,510.75Z" transform="translate(-26.77 -426.48)"/><path class="cls-1" d="M116.32,720.37c14.18,5,19.82,13.75,18,27-1.6,11.76-9.26,18.88-24.33,22-11.7,2.46-23.6.68-35.4,1.16-4.68.19-4.67-2.9-4.67-6.25q.06-40.11,0-80.24c0-3.63.61-6.14,5-5.92,11.39.57,22.85-1.12,34.21,1.29,9.45,2,17.48,5.75,19.54,16.18S127.12,714.14,116.32,720.37ZM93,725.5c-12.31-4.73-12.57,4.59-11.79,15.16.32,4.29.09,8.62.06,12.93,0,2.45.07,5,3.41,4.88,10.13-.25,20.52,1.84,30.19-2.81,6.33-3,9.28-8.41,8.76-15.29-.48-6.48-4.22-10.47-10.41-12.84C107.44,725.33,101.62,725.76,93,725.5Zm2-35.56c-4.5,1.17-11.69-2.41-13,2.12a41.29,41.29,0,0,0,0,22c1.28,4.37,8.5,1.73,13,1.79,16.06.21,24.08-4.41,22.91-13.64C116.13,688.07,104.38,690.88,95,689.94Z" transform="translate(-26.77 -426.48)"/><path class="cls-1" d="M426.83,745.43c-1.74,6.76,4.28,16.4-6.78,21.9-14.57,7.25-28.86,7.65-42.94-.26-15.82-8.89-23.7-31.62-19.56-54.48,3.55-19.59,15.68-32.5,34.2-36.12,11.17-2.19,21.06.72,29.67,8.11,2.48,2.13,4.61,4,1.62,7.64-2.84,3.48-4.76,2-7.82.34-22.36-11.89-43.41-.84-46.36,24.28-1.22,10.3-.71,20.48,4.58,29.82,7.17,12.66,23.57,18.1,37,12.55,11.83-4.9,5.49-15,6-22.63.49-7-6.53-2.69-10-3.86s-9.43,3-9.29-5,6.17-4.44,9.55-4.52C426.83,722.72,426.83,722.88,426.83,745.43Z" transform="translate(-26.77 -426.48)"/><path class="cls-1" d="M309,772.9c-8.63-.55-17.93-4.3-26-11.22-2.56-2.2-4.58-4-1.27-7.43,2.54-2.62,4.14-4,7.69-1.12A34.15,34.15,0,0,0,314.8,761c7.7-.72,14-3.42,16-11.5,2-8.43-2.86-13.29-10-16.53-6.81-3.09-13.7-6-20.41-9.3-13.48-6.6-19-16.18-16.39-28,2.38-10.86,13.26-19.06,26.53-19.75,9.08-.48,17.09,2.66,24,8.27,2.09,1.68,6.07,3,3.09,7.32-2.65,3.83-5.1,3.88-8.68,1.1-6.3-4.89-13.82-5.61-21.41-4.61-6.29.83-11.28,3.9-12.51,10.7-1.15,6.36,2.16,10.69,7.56,13.31,6.72,3.27,13.68,6,20.48,9.12,15.59,7.08,21.79,16.86,19.14,30S326.92,773.05,309,772.9Z" transform="translate(-26.77 -426.48)"/><path class="cls-1" d="M512.54,769.16c-10,4.41-12.6-1.16-14.85-8.93-5.25-18.15-5.65-16.72-24-18.5-14.65-1.43-19,5.2-21.73,17.29-2.64,11.53-3.35,11.37-14.47,10.63,9.95-29.17,19.87-58,29.57-87,1.5-4.48,4.48-4.56,8.23-4.62,4-.06,6.52.76,8,5.08C492.86,711.86,502.74,740.48,512.54,769.16Zm-37.76-82.1c-3.13,10.12-5.6,18.26-8.17,26.38-6.55,20.63-5.18,22,17,19.27,4.72-.59,4.93-2.24,3.78-5.84C483.38,714.27,479.41,701.64,474.78,687.06Z" transform="translate(-26.77 -426.48)"/><path class="cls-1" d="M1176.17,603.66c-.14,14.88-10.53,25.34-25.12,25.3s-24.84-10.61-24.88-25.54,11.71-27.11,25.71-26.56C1165.66,577.39,1176.31,589.15,1176.17,603.66Z" transform="translate(-26.77 -426.48)"/><path class="cls-1" d="M172.91,725.5c6.86-14.84,12.84-26.8,17.91-39.13,2.89-7,6.63-10.31,15-7.09-4.84,9.82-8.91,20-14.62,29.24a84.68,84.68,0,0,0-12.66,55c.37,3.6.42,7.06-5.09,7.1-4.52,0-7-1.31-6.09-6,5-26.58-9.18-47.66-19.94-69.73-2.53-5.2-5.12-10.37-7.71-15.61,8.08-3.06,12.22-.65,15.2,6.69C160,698.64,166.16,710.86,172.91,725.5Z" transform="translate(-26.77 -426.48)"/><path class="cls-1" d="M248,724.3c0-13,.1-26-.05-39-.06-4.32-.09-7.52,5.93-7.35,5.35.15,5.43,3,5.42,6.85q-.07,39.55,0,79.12c0,3.93-.26,6.61-5.52,6.76-6.13.16-5.87-3.24-5.83-7.44C248.05,750.28,248,737.29,248,724.3Z" transform="translate(-26.77 -426.48)"/></svg>