<svg version="1.1" xmlns="http://www.w3.org/2000/svg" xmlns:xlink="http://www.w3.org/1999/xlink" viewBox="0 0 72 71.85" style="fill: #1A1613">
    <path class="st0" d="M69.01,50.06c-2.51,10.85-10.41,20.1-21.98,20.1c-10.17,0-15.82-6.6-16.08-32.39h0.02
    c-0.01-0.64-0.05-1.18-0.05-1.84c0-12.04,1.06-20.11,3.15-25.38c-1.57-3.09-3.56-4.42-5.75-4.95
    c-9.35,6.37-14.75,17.54-14.75,30.34c0,0.63,0.07,1.23,0.1,1.84h0.05c0.79,18.93,13.32,34.08,33.3,34.08
    c10.32,0,17.83-1.29,24.97-6.17l-1.35-15.62H69.01z"/>
    <path class="st0" d="M47.03,1.69c10.99,0,16.58,6.57,21.98,20h1.64L72,6.07C65.92,1,56.96,0,47.03,0c-1.85,0-3.55,0.27-5.27,0.52
    c0.84,0.43,1.67,0.88,2.47,1.38C45.13,1.78,46.05,1.69,47.03,1.69"/>
    <path class="st0" d="M24.97,70.16c-11.57,0-19.47-9.25-21.98-20.1H1.35L0,65.68c7.14,4.87,14.65,6.17,24.97,6.17
    c1.85,0,3.55-0.27,5.27-0.52c-0.85-0.43-1.68-0.89-2.48-1.39C26.86,70.08,25.94,70.16,24.97,70.16"/>
    <path class="st0" d="M58.42,35.93C58.42,16.12,45.6,0,24.97,0C15.04,0,6.08,1,0,6.07L1.35,21.7h1.64c5.4-13.44,10.99-20,21.98-20
    c10.7,0,16.1,6.97,16.1,34.23c0,0.64-0.02,1.22-0.03,1.84h-0.02c-0.11,10.86-1.16,18.42-3.12,23.39c1.66,3.4,3.7,4.66,5.69,5.14
    c8.93-6.05,14.22-16.49,14.72-28.53h-0.05C58.29,37.15,58.42,36.56,58.42,35.93"/>
</svg>